<svg width="1280" height="174" viewBox="0 0 1280 174" fill="none" xmlns="http://www.w3.org/2000/svg">
<path fill-rule="evenodd" clip-rule="evenodd" d="M103.5 116C122.508 116 140.628 112.43 157.141 105.965C180.854 146.515 226.759 174 279.5 174C337.291 174 386.875 140.999 408.047 93.9699C430.204 107.886 456.843 116 485.5 116C503.261 116 520.248 112.883 535.872 107.199C559.789 147.072 605.296 174 657.5 174C716.113 174 766.283 140.054 786.932 91.9561C809.688 107.1 837.487 116 867.5 116C883.089 116 898.08 113.599 912.078 109.169C936.298 147.956 981.16 174 1032.5 174C1081.84 174 1125.2 149.944 1150 113.64C1158.58 115.189 1167.44 116 1176.5 116C1217.56 116 1254.47 99.3434 1280 72.8333V0H0V72.8333C25.5273 99.3434 62.4423 116 103.5 116Z" fill="url(#paint0_linear_283_97)" fill-opacity="0.1"/>
<defs>
<linearGradient id="paint0_linear_283_97" x1="0" y1="87" x2="1280" y2="87" gradientUnits="userSpaceOnUse">
<stop offset="1" stop-color="#512E88"/>
</linearGradient>
</defs>
</svg>
