<svg width="35" height="36" viewBox="0 0 35 36" fill="none" xmlns="http://www.w3.org/2000/svg">
<path d="M35 31.6111C35 32.6425 34.5903 33.6317 33.861 34.361C33.1317 35.0903 32.1425 35.5 31.1111 35.5H3.88889C2.85749 35.5 1.86834 35.0903 1.13903 34.361C0.409721 33.6317 0 32.6425 0 31.6111V4.38889C0 3.35749 0.409721 2.36834 1.13903 1.63903C1.86834 0.909721 2.85749 0.5 3.88889 0.5L31.1111 0.5C32.1425 0.5 33.1317 0.909721 33.861 1.63903C34.5903 2.36834 35 3.35749 35 4.38889V31.6111Z" fill="#77B255"/>
<path d="M31.1662 16.1111H22.2499L28.9573 9.40375C29.143 9.22438 29.2911 9.00982 29.393 8.77259C29.495 8.53536 29.5486 8.28021 29.5508 8.02203C29.5531 7.76385 29.5039 7.5078 29.4061 7.26884C29.3083 7.02987 29.164 6.81277 28.9814 6.6302C28.7988 6.44763 28.5817 6.30325 28.3428 6.20549C28.1038 6.10772 27.8477 6.05852 27.5896 6.06076C27.3314 6.06301 27.0762 6.11665 26.839 6.21855C26.6018 6.32046 26.3872 6.46859 26.2078 6.65431L19.5005 13.3617V4.44444C19.5005 3.92875 19.2956 3.43417 18.931 3.06951C18.5663 2.70486 18.0717 2.5 17.556 2.5C17.0403 2.5 16.5458 2.70486 16.1811 3.06951C15.8165 3.43417 15.6116 3.92875 15.6116 4.44444V13.3607L8.90424 6.65333C8.72487 6.46762 8.51031 6.31949 8.27308 6.21758C8.03585 6.11567 7.7807 6.06203 7.52252 6.05979C7.26433 6.05755 7.00829 6.10675 6.76933 6.20451C6.53036 6.30228 6.31326 6.44666 6.13069 6.62923C5.94812 6.8118 5.80374 7.0289 5.70597 7.26787C5.6082 7.50683 5.55901 7.76288 5.56125 8.02106C5.56349 8.27924 5.61713 8.53439 5.71904 8.77162C5.82095 9.00885 5.96908 9.22341 6.15479 9.40278L12.8631 16.1111H3.94493C3.42923 16.111 2.9346 16.3157 2.56986 16.6803C2.20511 17.0448 2.00013 17.5394 2 18.0551C1.99987 18.5708 2.20461 19.0654 2.56917 19.4301C2.93373 19.7949 3.42826 19.9999 3.94396 20H12.8631L6.15479 26.7083C5.80547 27.0759 5.61354 27.5654 5.61994 28.0724C5.62635 28.5794 5.83057 29.0639 6.18906 29.4225C6.54756 29.7812 7.03196 29.9856 7.539 29.9921C8.04603 29.9987 8.53558 29.807 8.90326 29.4578L15.6116 22.7494V31.6667C15.6116 32.1824 15.8165 32.6769 16.1811 33.0416C16.5458 33.4063 17.0403 33.6111 17.556 33.6111C18.0717 33.6111 18.5663 33.4063 18.931 33.0416C19.2956 32.6769 19.5005 32.1824 19.5005 31.6667V22.7494L26.2078 29.4568C26.3872 29.6425 26.6018 29.7907 26.839 29.8926C27.0762 29.9945 27.3314 30.0481 27.5896 30.0503C27.8477 30.0526 28.1038 30.0034 28.3428 29.9056C28.5817 29.8079 28.7988 29.6635 28.9814 29.4809C29.164 29.2983 29.3083 29.0812 29.4061 28.8423C29.5039 28.6033 29.5531 28.3473 29.5508 28.0891C29.5486 27.8309 29.495 27.5757 29.393 27.3385C29.2911 27.1013 29.143 26.8867 28.9573 26.7074L22.2499 20H31.1662C31.6819 20 32.1765 19.7951 32.5411 19.4305C32.9058 19.0658 33.1106 18.5713 33.1106 18.0556C33.1106 17.5399 32.9058 17.0453 32.5411 16.6806C32.1765 16.316 31.6819 16.1111 31.1662 16.1111Z" fill="white"/>
</svg>
