<svg width="35" height="35" viewBox="0 0 35 35" fill="none" xmlns="http://www.w3.org/2000/svg">
<path d="M33.0556 28.2878C32.6501 27.3516 32.1844 26.3356 31.1111 26.3356H30.1389C31.2122 26.3356 32.0833 25.4616 32.0833 24.3834V7.7856C32.0838 7.52974 32.034 7.27628 31.9365 7.0397C31.8391 6.80313 31.696 6.58806 31.5154 6.40678C31.3349 6.2255 31.1204 6.08155 30.8842 5.98317C30.648 5.88478 30.3947 5.83388 30.1389 5.83337H4.86111C3.78778 5.83337 2.91667 6.7074 2.91667 7.7856V24.3834C2.91667 25.4616 3.78778 26.3356 4.86111 26.3356H3.88889C2.81556 26.3356 2.26819 27.3117 1.94444 28.2878L0 33.0468C0 34.126 0.871111 35 1.94444 35H33.0556C34.1289 35 35 34.126 35 33.0478L33.0556 28.2878Z" fill="#CCD6DD"/>
<path d="M0.00805664 33.1284L0.01389 33.1838L0.179168 33.8566C0.332623 34.1966 0.580715 34.4852 0.8938 34.6879C1.20689 34.8907 1.57172 34.999 1.94472 34.9999H33.0558C33.5578 34.9983 34.0397 34.8026 34.4006 34.4538C34.7616 34.1049 34.9737 33.63 34.9925 33.1284H0.00805664Z" fill="#9AAAB4"/>
<path d="M30.1389 23.4062C30.1389 23.9458 29.7043 24.3823 29.1666 24.3823H5.83331C5.29664 24.3823 4.86108 23.9458 4.86108 23.4062V8.76261C4.86108 8.22303 5.29664 7.7865 5.83331 7.7865H29.1666C29.7043 7.7865 30.1389 8.224 30.1389 8.76261V23.4062Z" fill="#5DADEC"/>
<path d="M31.992 30.1797L31.2531 28.0651C31.0207 27.6179 30.6357 27.2513 30.0981 27.2513H4.9681C4.43143 27.2513 4.08727 27.648 3.84421 28.2586L3.17532 30.1806C2.96241 30.7601 3.61088 31.1568 4.14754 31.1568H11.515C11.515 31.1568 12.426 31.1111 12.5874 30.5656C12.7741 29.9356 12.9909 28.9868 13.0375 28.8195C13.1095 28.5629 13.4148 28.3033 13.8698 28.3033H22.2095C22.6956 28.3033 22.9348 28.5493 22.998 28.8536C23.0388 29.0519 23.3013 29.9629 23.4238 30.5861C23.5317 31.1412 24.6109 31.1558 24.6109 31.1558H31.0217C31.5574 31.1558 32.2049 30.6979 31.992 30.1797Z" fill="#AEBBC1"/>
<path d="M21.7535 32.1932H14.1886C13.824 32.1932 13.6656 31.8597 13.7181 31.537C13.7706 31.2152 14.0671 29.7938 14.0904 29.6285C14.1128 29.4622 14.3568 29.2639 14.5999 29.2639H21.42C21.7088 29.2639 21.8964 29.4224 21.9547 29.7393C22.0121 30.0572 22.2483 31.3347 22.2668 31.6264C22.2853 31.9191 22.1025 32.1932 21.7535 32.1932Z" fill="#9AAAB4"/>
</svg>
