<svg width="35" height="35" viewBox="0 0 35 35" fill="none" xmlns="http://www.w3.org/2000/svg">
<path d="M17.5 0C7.83514 0 0 7.83514 0 17.5C0 27.1649 7.83514 35 17.5 35C27.1649 35 35 27.1649 35 17.5C35 7.83514 27.1649 0 17.5 0ZM1.99306 18.4722H5.86542C5.95486 20.9086 6.37292 23.2079 7.06028 25.2778H4.0425C2.83954 23.1994 2.13781 20.8692 1.99306 18.4722ZM18.4722 7.77778V2.02319C21.1429 2.44708 23.4908 4.60444 25.0824 7.77778H18.4722ZM25.9107 9.72222C26.6437 11.7474 27.0958 14.0583 27.1911 16.5278H18.4722V9.72222H25.9107ZM16.5278 2.02319V7.77778H9.91764C11.5082 4.60444 13.8571 2.44708 16.5278 2.02319ZM16.5278 9.72222V16.5278H7.80889C7.90417 14.0583 8.35625 11.7474 9.08931 9.72222H16.5278ZM5.86639 16.5278H1.99306C2.13804 14.1309 2.8394 11.8009 4.04153 9.72222H7.05931C6.37389 11.7921 5.95583 14.0924 5.86639 16.5278ZM7.80889 18.4722H16.5278V25.2778H9.08931C8.35625 23.2526 7.90417 20.9426 7.80889 18.4722ZM16.5278 27.2222V32.9768C13.8571 32.5519 11.5082 30.3956 9.91764 27.2222H16.5278ZM18.4722 32.9768V27.2222H25.0833C23.4918 30.3956 21.1429 32.5519 18.4722 32.9768ZM18.4722 25.2778V18.4722H27.1921C27.0958 20.9426 26.6447 23.2526 25.9117 25.2778H18.4722ZM29.1346 18.4722H33.006C32.862 20.8692 32.1606 23.1996 30.9575 25.2778H27.9397C28.6261 23.2079 29.0442 20.9086 29.1346 18.4722ZM29.1346 16.5278C29.0442 14.0924 28.6261 11.7921 27.9397 9.72222H30.9575C32.1604 11.8005 32.8619 14.1308 33.006 16.5278H29.1346ZM29.6324 7.77778H27.1989C26.5018 6.21833 25.6375 4.84653 24.6526 3.69542C26.5786 4.69481 28.2747 6.08525 29.6324 7.77778ZM10.3474 3.69542C9.36153 4.84653 8.49722 6.21833 7.80014 7.77778H5.36764C6.72561 6.08552 8.42163 4.69512 10.3474 3.69542ZM5.36764 27.2222H7.80111C8.49722 28.7817 9.36153 30.1535 10.3474 31.3036C8.42147 30.3046 6.72538 28.9145 5.36764 27.2222ZM24.6526 31.3036C25.6385 30.1525 26.5018 28.7817 27.1989 27.2222H29.6324C28.2746 28.9145 26.5785 30.3046 24.6526 31.3036Z" fill="#3B88C3"/>
</svg>
