<svg width="35" height="35" viewBox="0 0 35 35" fill="none" xmlns="http://www.w3.org/2000/svg">
<g clip-path="url(#clip0_59_38)">
<path d="M29.1667 25.2778C29.1667 26.3092 28.7569 27.2983 28.0276 28.0276C27.2983 28.7569 26.3092 29.1667 25.2778 29.1667H3.88889C2.85749 29.1667 1.86834 28.7569 1.13903 28.0276C0.409721 27.2983 0 26.3092 0 25.2778V3.88889C0 2.85749 0.409721 1.86834 1.13903 1.13903C1.86834 0.409721 2.85749 0 3.88889 0L25.2778 0C26.3092 0 27.2983 0.409721 28.0276 1.13903C28.7569 1.86834 29.1667 2.85749 29.1667 3.88889V25.2778Z" fill="#CCD6DC"/>
<path d="M27.2221 25.2778C27.2221 25.7935 27.0173 26.2881 26.6526 26.6527C26.2879 27.0174 25.7934 27.2222 25.2777 27.2222H3.88878C3.37308 27.2222 2.8785 27.0174 2.51385 26.6527C2.1492 26.2881 1.94434 25.7935 1.94434 25.2778V3.8889C1.94434 3.3732 2.1492 2.87863 2.51385 2.51397C2.8785 2.14932 3.37308 1.94446 3.88878 1.94446H25.2777C25.7934 1.94446 26.2879 2.14932 26.6526 2.51397C27.0173 2.87863 27.2221 3.3732 27.2221 3.8889V25.2778Z" fill="#F5F8FA"/>
<path d="M5.83331 25.2777C5.57546 25.2777 5.32817 25.1753 5.14584 24.993C4.96351 24.8107 4.86108 24.5634 4.86108 24.3055V12.6388C4.86108 12.381 4.96351 12.1337 5.14584 11.9514C5.32817 11.7691 5.57546 11.6666 5.83331 11.6666C6.09116 11.6666 6.33844 11.7691 6.52077 11.9514C6.7031 12.1337 6.80553 12.381 6.80553 12.6388V24.3055C6.80553 24.5634 6.7031 24.8107 6.52077 24.993C6.33844 25.1753 6.09116 25.2777 5.83331 25.2777Z" fill="#50A5E6"/>
<path d="M9.72222 25.2778C9.46437 25.2778 9.21708 25.1753 9.03476 24.993C8.85243 24.8107 8.75 24.5634 8.75 24.3055V7.77776C8.75 7.51991 8.85243 7.27263 9.03476 7.0903C9.21708 6.90797 9.46437 6.80554 9.72222 6.80554C9.98007 6.80554 10.2274 6.90797 10.4097 7.0903C10.592 7.27263 10.6944 7.51991 10.6944 7.77776V24.3055C10.6944 24.5634 10.592 24.8107 10.4097 24.993C10.2274 25.1753 9.98007 25.2778 9.72222 25.2778Z" fill="#77B255"/>
<path d="M34.9999 35.0001V30.6251C34.9999 27.4031 31.5379 25.2778 28.3159 25.2778H16.6493C13.4283 25.2778 9.72217 27.4031 9.72217 30.6251V35.0001H34.9999Z" fill="#226798"/>
<path d="M27.4654 25.2778L24.3718 35.0001H20.3944L17.7432 25.2778" fill="#F4F7F9"/>
<path d="M18.4723 25.2778H17.014L16.0417 30.6251L18.9584 31.5973L18.4723 35.0001H21.8751L18.4723 25.2778ZM26.7362 25.2778H28.1945L28.6806 30.6251L25.764 31.5973L26.2501 35.0001H22.8473L26.7362 25.2778Z" fill="#3A87C2"/>
<path d="M22.5555 3.86853C26.5455 3.86853 33.1984 5.8645 33.1984 14.5114C33.1984 23.1594 33.1984 25.1553 31.2024 25.1553C29.2064 25.1553 26.5455 23.1594 22.5545 23.1594C18.5626 23.1594 15.958 25.1553 13.9056 25.1553C11.6821 25.1553 11.9096 17.1724 11.9096 14.5114C11.9116 5.86353 18.5645 3.86853 22.5555 3.86853Z" fill="#FAAA35"/>
<path d="M19.2063 25.2777C20.1785 27.2047 21.9207 29.6527 22.6091 29.6527C23.2974 29.6527 25.0513 27.1746 26.0119 25.2777V21.7865H19.2063V25.2777Z" fill="#FFDB5E"/>
<path d="M19.2063 23.3858C20.1542 24.4572 21.3306 24.7469 22.6081 24.7469C23.8866 24.7469 25.0639 24.4572 26.0119 23.3858V20.6626H19.2063V23.3858Z" fill="#F8C954"/>
<path d="M14.5728 14.2208C14.5728 8.54881 18.1466 3.95117 22.5557 3.95117C26.9628 3.95117 30.5366 8.54881 30.5366 14.2208C30.5366 19.8917 26.9628 24.2201 22.5557 24.2201C18.1466 24.2201 14.5728 19.8917 14.5728 14.2208Z" fill="#FFDB5E"/>
<path d="M22.5554 21.8284C20.994 21.8284 20.1764 21.0564 20.0889 20.9679C19.9734 20.842 19.9108 20.6765 19.9139 20.5057C19.9171 20.3349 19.9857 20.1718 20.1057 20.0501C20.2257 19.9285 20.3879 19.8577 20.5586 19.8522C20.7294 19.8468 20.8957 19.9072 21.0232 20.021C21.0572 20.0521 21.5589 20.4984 22.5554 20.4984C23.5646 20.4984 24.0672 20.0385 24.0877 20.02C24.2153 19.9004 24.3846 19.8354 24.5595 19.8389C24.7344 19.8423 24.9011 19.914 25.0239 20.0385C25.2767 20.3 25.2767 20.7103 25.02 20.967C24.9335 21.0564 24.1168 21.8284 22.5554 21.8284Z" fill="#DE2032"/>
<path d="M23.4217 18.8698H21.7787C21.6696 18.8698 21.565 18.8265 21.4879 18.7494C21.4108 18.6722 21.3674 18.5676 21.3674 18.4586V18.3098C21.3674 18.0833 21.5512 17.8976 21.7787 17.8976H23.4217C23.6483 17.8976 23.834 18.0823 23.834 18.3098V18.4586C23.8337 18.5677 23.7902 18.6723 23.7129 18.7494C23.6356 18.8265 23.5309 18.8698 23.4217 18.8698Z" fill="#C1694F"/>
<path d="M25.8884 16.3294C25.6704 16.3284 25.4616 16.2413 25.3075 16.0871C25.1535 15.9328 25.0666 15.724 25.0659 15.506V14.6844C25.0659 14.2324 25.4363 13.8619 25.8884 13.8619C26.3404 13.8619 26.7109 14.2324 26.7109 14.6844V15.506C26.7101 15.724 26.6232 15.9328 26.4692 16.0871C26.3151 16.2413 26.1063 16.3284 25.8884 16.3294ZM19.3113 16.3294C19.0933 16.3284 18.8845 16.2413 18.7305 16.0871C18.5764 15.9328 18.4895 15.724 18.4888 15.506V14.6844C18.4888 14.2324 18.8592 13.8619 19.3113 13.8619C19.5293 13.8627 19.7381 13.9496 19.8924 14.1036C20.0466 14.2577 20.1337 14.4664 20.1347 14.6844V15.506C20.134 15.7241 20.047 15.9331 19.8927 16.0874C19.7384 16.2417 19.5294 16.3287 19.3113 16.3294Z" fill="#662213"/>
<path d="M12.6195 17.4115C12.5991 16.4393 12.5768 17.1937 12.5768 16.9594C12.5768 13.6325 14.5727 17.4397 14.5727 15.0704C14.5727 12.7001 15.9027 12.4619 17.2327 11.1319C17.8987 10.466 19.2287 9.16221 19.2287 9.16221C19.2287 9.16221 22.5547 11.1718 25.2157 11.1718C27.8757 11.1718 30.5376 12.5086 30.5376 15.1696C30.5376 17.8296 32.5336 13.6296 32.5336 16.9555C32.5336 17.1928 32.5122 16.4393 32.4947 17.4115H33.1937C33.1995 15.4671 33.1995 15.541 33.1995 14.2985C33.1995 5.65151 26.5476 2.43054 22.5557 2.43054C18.5657 2.43054 11.9127 5.59707 11.9127 14.245C11.9127 15.016 11.8933 15.4671 11.9205 17.4115H12.6195Z" fill="#FAAA35"/>
<path d="M32.1688 14.4326C32.1688 15.8404 31.4562 16.9818 30.5753 16.9818C29.6955 16.9818 28.9818 15.8404 28.9818 14.4326C28.9818 13.0248 29.6945 11.8824 30.5753 11.8824C31.4562 11.8824 32.1688 13.0248 32.1688 14.4326ZM16.235 14.4326C16.235 15.8404 15.5214 16.9818 14.6416 16.9818C13.7617 16.9818 13.0481 15.8404 13.0481 14.4326C13.0481 13.0248 13.7617 11.8824 14.6416 11.8824C15.5214 11.8824 16.235 13.0248 16.235 14.4326Z" fill="#FFDB5E"/>
</g>
<defs>
<clipPath id="clip0_59_38">
<rect width="35" height="35" fill="white"/>
</clipPath>
</defs>
</svg>
